<mxfile host="app.diagrams.net" modified="2024-05-23T12:10:16.928Z" agent="Mozilla/5.0 (Windows NT 10.0; Win64; x64) AppleWebKit/537.36 (KHTML, like Gecko) Chrome/121.0.0.0 Safari/537.36" etag="8GUWCe3IXxr7kM8qtphj" version="24.4.6" type="device">
  <diagram name="Página-1" id="AhK8qLFjwUJuuM3lIwTa">
    <mxGraphModel dx="1434" dy="782" grid="1" gridSize="10" guides="1" tooltips="1" connect="1" arrows="1" fold="1" page="1" pageScale="1" pageWidth="827" pageHeight="1169" math="0" shadow="0">
      <root>
        <mxCell id="0" />
        <mxCell id="1" parent="0" />
        <mxCell id="OCrhbPu4TxEZDssHP0U2-13" value="" style="edgeStyle=orthogonalEdgeStyle;rounded=0;orthogonalLoop=1;jettySize=auto;html=1;" edge="1" parent="1" source="OCrhbPu4TxEZDssHP0U2-1" target="OCrhbPu4TxEZDssHP0U2-9">
          <mxGeometry relative="1" as="geometry" />
        </mxCell>
        <mxCell id="OCrhbPu4TxEZDssHP0U2-1" value="inicio" style="strokeWidth=2;html=1;shape=mxgraph.flowchart.start_1;whiteSpace=wrap;" vertex="1" parent="1">
          <mxGeometry x="40" y="640" width="100" height="60" as="geometry" />
        </mxCell>
        <mxCell id="OCrhbPu4TxEZDssHP0U2-15" value="" style="edgeStyle=orthogonalEdgeStyle;rounded=0;orthogonalLoop=1;jettySize=auto;html=1;" edge="1" parent="1" source="OCrhbPu4TxEZDssHP0U2-2" target="OCrhbPu4TxEZDssHP0U2-11">
          <mxGeometry relative="1" as="geometry" />
        </mxCell>
        <mxCell id="OCrhbPu4TxEZDssHP0U2-2" value="buscar por matéria prima" style="rounded=0;whiteSpace=wrap;html=1;" vertex="1" parent="1">
          <mxGeometry x="30" y="820" width="120" height="50" as="geometry" />
        </mxCell>
        <mxCell id="OCrhbPu4TxEZDssHP0U2-14" value="" style="edgeStyle=orthogonalEdgeStyle;rounded=0;orthogonalLoop=1;jettySize=auto;html=1;" edge="1" parent="1" source="OCrhbPu4TxEZDssHP0U2-9" target="OCrhbPu4TxEZDssHP0U2-2">
          <mxGeometry relative="1" as="geometry" />
        </mxCell>
        <mxCell id="OCrhbPu4TxEZDssHP0U2-9" value="lista de matéria prima" style="rounded=0;whiteSpace=wrap;html=1;" vertex="1" parent="1">
          <mxGeometry x="30" y="730" width="120" height="50" as="geometry" />
        </mxCell>
        <mxCell id="OCrhbPu4TxEZDssHP0U2-39" value="" style="edgeStyle=orthogonalEdgeStyle;rounded=0;orthogonalLoop=1;jettySize=auto;html=1;" edge="1" parent="1" source="OCrhbPu4TxEZDssHP0U2-11" target="OCrhbPu4TxEZDssHP0U2-12">
          <mxGeometry relative="1" as="geometry" />
        </mxCell>
        <mxCell id="OCrhbPu4TxEZDssHP0U2-11" value="verificar estoque" style="rounded=0;whiteSpace=wrap;html=1;" vertex="1" parent="1">
          <mxGeometry x="30" y="900" width="120" height="50" as="geometry" />
        </mxCell>
        <mxCell id="OCrhbPu4TxEZDssHP0U2-18" value="" style="edgeStyle=orthogonalEdgeStyle;rounded=0;orthogonalLoop=1;jettySize=auto;html=1;" edge="1" parent="1" source="OCrhbPu4TxEZDssHP0U2-12" target="OCrhbPu4TxEZDssHP0U2-17">
          <mxGeometry relative="1" as="geometry" />
        </mxCell>
        <mxCell id="OCrhbPu4TxEZDssHP0U2-19" value="não" style="edgeLabel;html=1;align=center;verticalAlign=middle;resizable=0;points=[];" vertex="1" connectable="0" parent="OCrhbPu4TxEZDssHP0U2-18">
          <mxGeometry x="-0.1714" relative="1" as="geometry">
            <mxPoint as="offset" />
          </mxGeometry>
        </mxCell>
        <mxCell id="OCrhbPu4TxEZDssHP0U2-12" value="MP disponível?&amp;nbsp;" style="strokeWidth=2;html=1;shape=mxgraph.flowchart.decision;whiteSpace=wrap;" vertex="1" parent="1">
          <mxGeometry x="40" y="990" width="100" height="100" as="geometry" />
        </mxCell>
        <mxCell id="OCrhbPu4TxEZDssHP0U2-27" value="" style="edgeStyle=orthogonalEdgeStyle;rounded=0;orthogonalLoop=1;jettySize=auto;html=1;" edge="1" parent="1" source="OCrhbPu4TxEZDssHP0U2-17" target="OCrhbPu4TxEZDssHP0U2-26">
          <mxGeometry relative="1" as="geometry" />
        </mxCell>
        <mxCell id="OCrhbPu4TxEZDssHP0U2-17" value="consultar fornecedor" style="rounded=0;whiteSpace=wrap;html=1;" vertex="1" parent="1">
          <mxGeometry x="220" y="1015" width="120" height="50" as="geometry" />
        </mxCell>
        <mxCell id="OCrhbPu4TxEZDssHP0U2-48" value="" style="edgeStyle=orthogonalEdgeStyle;rounded=0;orthogonalLoop=1;jettySize=auto;html=1;" edge="1" parent="1" source="OCrhbPu4TxEZDssHP0U2-26" target="OCrhbPu4TxEZDssHP0U2-47">
          <mxGeometry relative="1" as="geometry" />
        </mxCell>
        <mxCell id="OCrhbPu4TxEZDssHP0U2-49" value="sim" style="edgeLabel;html=1;align=center;verticalAlign=middle;resizable=0;points=[];" vertex="1" connectable="0" parent="OCrhbPu4TxEZDssHP0U2-48">
          <mxGeometry x="-0.4333" y="-1" relative="1" as="geometry">
            <mxPoint as="offset" />
          </mxGeometry>
        </mxCell>
        <mxCell id="OCrhbPu4TxEZDssHP0U2-26" value="fornecedor cadastrado?" style="strokeWidth=2;html=1;shape=mxgraph.flowchart.decision;whiteSpace=wrap;" vertex="1" parent="1">
          <mxGeometry x="390" y="990" width="100" height="100" as="geometry" />
        </mxCell>
        <mxCell id="OCrhbPu4TxEZDssHP0U2-38" value="sim" style="edgeStyle=orthogonalEdgeStyle;rounded=0;orthogonalLoop=1;jettySize=auto;html=1;entryX=-0.01;entryY=0.317;entryDx=0;entryDy=0;entryPerimeter=0;" edge="1" parent="1" source="OCrhbPu4TxEZDssHP0U2-12" target="OCrhbPu4TxEZDssHP0U2-1">
          <mxGeometry relative="1" as="geometry">
            <Array as="points">
              <mxPoint x="10" y="1040" />
              <mxPoint x="10" y="659" />
            </Array>
          </mxGeometry>
        </mxCell>
        <mxCell id="OCrhbPu4TxEZDssHP0U2-54" value="" style="edgeStyle=orthogonalEdgeStyle;rounded=0;orthogonalLoop=1;jettySize=auto;html=1;" edge="1" parent="1" source="OCrhbPu4TxEZDssHP0U2-47" target="OCrhbPu4TxEZDssHP0U2-53">
          <mxGeometry relative="1" as="geometry" />
        </mxCell>
        <mxCell id="OCrhbPu4TxEZDssHP0U2-47" value="MP cadastrada?" style="strokeWidth=2;html=1;shape=mxgraph.flowchart.decision;whiteSpace=wrap;" vertex="1" parent="1">
          <mxGeometry x="550" y="990" width="100" height="100" as="geometry" />
        </mxCell>
        <mxCell id="OCrhbPu4TxEZDssHP0U2-56" value="" style="edgeStyle=orthogonalEdgeStyle;rounded=0;orthogonalLoop=1;jettySize=auto;html=1;" edge="1" parent="1" source="OCrhbPu4TxEZDssHP0U2-53" target="OCrhbPu4TxEZDssHP0U2-55">
          <mxGeometry relative="1" as="geometry" />
        </mxCell>
        <mxCell id="OCrhbPu4TxEZDssHP0U2-53" value="informar quantidade" style="rounded=0;whiteSpace=wrap;html=1;" vertex="1" parent="1">
          <mxGeometry x="540" y="905" width="120" height="45" as="geometry" />
        </mxCell>
        <mxCell id="OCrhbPu4TxEZDssHP0U2-55" value="verificar data de entrega" style="rounded=0;whiteSpace=wrap;html=1;" vertex="1" parent="1">
          <mxGeometry x="540" y="822.5" width="120" height="45" as="geometry" />
        </mxCell>
      </root>
    </mxGraphModel>
  </diagram>
</mxfile>
